<!-- Generated by IcoMoon.io -->
<svg version="1.1" xmlns="http://www.w3.org/2000/svg" width="32" height="32" viewBox="0 0 32 32">
<title>cart</title>
<path d="M27.576 7.52c-0.139-0.165-0.345-0.27-0.576-0.27h-20.375l-0.646-3.563c-0.153-0.823-0.866-1.438-1.722-1.438-0 0-0 0-0.001 0h-2.256c-0.414 0-0.75 0.336-0.75 0.75s0.336 0.75 0.75 0.75v0h2.25c0.001-0 0.003-0 0.004-0 0.122 0 0.224 0.088 0.246 0.203l0 0.002 3.189 17.538c0.108 0.581 0.386 1.085 0.78 1.471l0 0c-0.746 0.601-1.22 1.514-1.22 2.538 0 1.795 1.455 3.25 3.25 3.25s3.25-1.455 3.25-3.25c0-0.65-0.191-1.256-0.52-1.764l0.008 0.013h6.527c-0.321 0.495-0.511 1.1-0.511 1.75 0 1.795 1.455 3.25 3.25 3.25s3.25-1.455 3.25-3.25c0-1.795-1.455-3.25-3.25-3.25-0.001 0-0.002 0-0.003 0h-12.104c-0 0-0 0-0 0-0.611 0-1.12-0.439-1.229-1.018l-0.001-0.008-0.45-2.474h14.796c0 0 0 0 0.001 0 1.345 0 2.464-0.965 2.703-2.24l0.003-0.017 1.519-8.359c0.008-0.040 0.012-0.087 0.012-0.134 0-0.183-0.066-0.351-0.174-0.481l0.001 0.001zM12.25 25.5c0 0.966-0.784 1.75-1.75 1.75s-1.75-0.784-1.75-1.75c0-0.966 0.784-1.75 1.75-1.75v0c0.966 0 1.75 0.784 1.75 1.75v0zM24.25 25.5c0 0.966-0.784 1.75-1.75 1.75s-1.75-0.784-1.75-1.75c0-0.966 0.784-1.75 1.75-1.75v0c0.966 0 1.75 0.784 1.75 1.75v0zM24.742 16.224c-0.11 0.587-0.619 1.026-1.23 1.026-0 0-0 0-0 0h-15.069l-1.545-8.5h19.203z"></path>
</svg>
