<!-- Generated by IcoMoon.io -->
<svg version="1.1" xmlns="http://www.w3.org/2000/svg" width="32" height="32" viewBox="0 0 32 32">
<title>chevron</title>
<path d="M26.707 12.707l-10 10c-0.181 0.181-0.431 0.293-0.707 0.293s-0.527-0.112-0.707-0.293v0l-10-10c-0.181-0.181-0.293-0.431-0.293-0.707 0-0.553 0.448-1.001 1.001-1.001 0.276 0 0.526 0.112 0.708 0.293l9.292 9.294 9.293-9.294c0.181-0.181 0.431-0.293 0.707-0.293 0.553 0 1.001 0.448 1.001 1.001 0 0.276-0.112 0.526-0.293 0.707v0z"></path>
</svg>
