<!-- Generated by IcoMoon.io -->
<svg version="1.1" xmlns="http://www.w3.org/2000/svg" width="32" height="32" viewBox="0 0 32 32">
<title>close</title>
<path d="M25.53 24.47c0.147 0.137 0.239 0.332 0.239 0.549 0 0.414-0.336 0.75-0.75 0.75-0.216 0-0.411-0.092-0.548-0.238l-0-0-8.47-8.469-8.47 8.469c-0.134 0.125-0.314 0.201-0.511 0.201-0.414 0-0.75-0.336-0.75-0.75 0-0.198 0.077-0.378 0.202-0.512l-0 0 8.469-8.47-8.469-8.47c-0.125-0.134-0.201-0.314-0.201-0.511 0-0.414 0.336-0.75 0.75-0.75 0.198 0 0.378 0.077 0.512 0.202l-0-0 8.47 8.469 8.47-8.469c0.134-0.125 0.314-0.201 0.511-0.201 0.414 0 0.75 0.336 0.75 0.75 0 0.198-0.077 0.378-0.202 0.512l0-0-8.469 8.47z"></path>
</svg>
