<!-- Generated by IcoMoon.io -->
<svg version="1.1" xmlns="http://www.w3.org/2000/svg" width="32" height="32" viewBox="0 0 32 32">
<title>facebook-filled</title>
<path d="M29 16c-0.009 6.628-4.969 12.095-11.38 12.901l-0.064 0.007c-0.017 0.002-0.036 0.003-0.056 0.003-0.276 0-0.5-0.224-0.5-0.5 0-0.001 0-0.002 0-0.003v0-9.407h3c0.001 0 0.001 0 0.002 0 0.552 0 1-0.448 1-1 0-0.023-0.001-0.046-0.002-0.069l0 0.003c-0.046-0.525-0.484-0.934-1.017-0.934-0.005 0-0.010 0-0.014 0h-2.968v-3c0-1.105 0.895-2 2-2v0h2c0.001 0 0.001 0 0.002 0 0.552 0 1-0.448 1-1 0-0.023-0.001-0.046-0.002-0.069l0 0.003c-0.046-0.525-0.484-0.934-1.018-0.934-0.006 0-0.011 0-0.017 0h-1.965c-2.209 0-4 1.791-4 4v0 3h-3c-0.001 0-0.001 0-0.002 0-0.552 0-1 0.448-1 1 0 0.023 0.001 0.046 0.002 0.069l-0-0.003c0.046 0.525 0.484 0.934 1.018 0.934 0.006 0 0.011-0 0.017-0h2.965v9.41c0 0.001 0 0.002 0 0.003 0 0.276-0.224 0.5-0.5 0.5-0.019 0-0.039-0.001-0.057-0.003l0.002 0c-6.481-0.812-11.445-6.288-11.445-12.923 0-0.167 0.003-0.334 0.009-0.499l-0.001 0.024c0.25-6.75 5.717-12.238 12.473-12.5 0.15-0.006 0.327-0.010 0.504-0.010 7.182 0 13.006 5.818 13.015 12.998v0.001z"></path>
</svg>
