<!-- Generated by IcoMoon.io -->
<svg version="1.1" xmlns="http://www.w3.org/2000/svg" width="32" height="32" viewBox="0 0 32 32">
<title>instagram-filled</title>
<path d="M22 3h-12c-3.864 0.004-6.996 3.136-7 7v12c0.004 3.864 3.136 6.996 7 7h12c3.864-0.004 6.996-3.136 7-7v-12c-0.004-3.864-3.136-6.996-7-7h-0zM16 22c-3.314 0-6-2.686-6-6s2.686-6 6-6c3.314 0 6 2.686 6 6v0c-0.004 3.312-2.688 5.996-6 6h-0zM23.5 10c-0.828 0-1.5-0.672-1.5-1.5s0.672-1.5 1.5-1.5c0.828 0 1.5 0.672 1.5 1.5v0c0 0.828-0.672 1.5-1.5 1.5v0zM20 16c0 2.209-1.791 4-4 4s-4-1.791-4-4c0-2.209 1.791-4 4-4v0c2.209 0 4 1.791 4 4v0z"></path>
</svg>
