<!-- Generated by IcoMoon.io -->
<svg version="1.1" xmlns="http://www.w3.org/2000/svg" width="32" height="32" viewBox="0 0 32 32">
<title>mobile__hamburger</title>
<path d="M27.75 16c0 0.414-0.336 0.75-0.75 0.75v0h-22c-0.414 0-0.75-0.336-0.75-0.75s0.336-0.75 0.75-0.75v0h22c0.414 0 0.75 0.336 0.75 0.75v0zM5 8.75h22c0.414 0 0.75-0.336 0.75-0.75s-0.336-0.75-0.75-0.75v0h-22c-0.414 0-0.75 0.336-0.75 0.75s0.336 0.75 0.75 0.75v0zM27 23.25h-22c-0.414 0-0.75 0.336-0.75 0.75s0.336 0.75 0.75 0.75v0h22c0.414 0 0.75-0.336 0.75-0.75s-0.336-0.75-0.75-0.75v0z"></path>
</svg>
