<!-- Generated by IcoMoon.io -->
<svg version="1.1" xmlns="http://www.w3.org/2000/svg" width="32" height="32" viewBox="0 0 32 32">
<title>serch</title>
<path d="M28.53 27.47l-6.422-6.422c1.642-1.88 2.643-4.356 2.643-7.066 0-5.947-4.821-10.769-10.769-10.769s-10.769 4.821-10.769 10.769c0 5.947 4.821 10.769 10.769 10.769 2.71 0 5.186-1.001 7.079-2.653l-0.013 0.011 6.422 6.422c0.134 0.125 0.314 0.201 0.511 0.201 0.414 0 0.75-0.336 0.75-0.75 0-0.198-0.077-0.378-0.202-0.512l0 0zM4.75 14c0-5.109 4.141-9.25 9.25-9.25s9.25 4.141 9.25 9.25c0 5.109-4.141 9.25-9.25 9.25v0c-5.106-0.006-9.244-4.144-9.25-9.249v-0.001z"></path>
</svg>
