<!-- Generated by IcoMoon.io -->
<svg version="1.1" xmlns="http://www.w3.org/2000/svg" width="32" height="32" viewBox="0 0 32 32">
<title>youtube</title>
<path d="M20.555 15.168l-6-4c-0.156-0.105-0.348-0.168-0.555-0.168-0.552 0-1 0.448-1 1 0 0 0 0 0 0.001v-0 8c0 0 0 0 0 0.001 0 0.552 0.448 1 1 1 0.207 0 0.399-0.063 0.559-0.17l-0.004 0.002 6-4c0.27-0.182 0.446-0.487 0.446-0.832s-0.176-0.651-0.442-0.83l-0.004-0.002zM15 18.131v-4.256l3.197 2.125zM29.291 8.69c-0.247-0.944-0.917-1.693-1.791-2.043l-0.020-0.007c-4.285-1.655-11.105-1.64-11.48-1.64s-7.195-0.015-11.48 1.64c-0.894 0.357-1.564 1.106-1.807 2.029l-0.005 0.021c-0.324 1.248-0.709 3.527-0.709 7.31s0.385 6.063 0.709 7.31c0.247 0.944 0.917 1.694 1.791 2.044l0.020 0.007c4.105 1.584 10.53 1.639 11.398 1.639h0.165c0.867 0 7.296-0.055 11.398-1.639 0.894-0.358 1.565-1.107 1.807-2.030l0.005-0.021c0.324-1.25 0.709-3.527 0.709-7.31s-0.385-6.063-0.709-7.31zM27.355 22.815c-0.080 0.314-0.301 0.565-0.59 0.684l-0.007 0.002c-3.956 1.527-10.685 1.5-10.75 1.5h-0.009c-0.068 0-6.791 0.025-10.75-1.5-0.295-0.122-0.516-0.372-0.595-0.679l-0.002-0.007c-0.304-1.141-0.654-3.244-0.654-6.815s0.35-5.674 0.645-6.809c0.079-0.316 0.3-0.569 0.59-0.689l0.007-0.002c3.815-1.474 10.207-1.5 10.731-1.5h0.034c0.067 0 6.797-0.022 10.75 1.5 0.295 0.121 0.516 0.372 0.595 0.679l0.002 0.007c0.297 1.14 0.648 3.242 0.648 6.814s-0.35 5.674-0.645 6.809z"></path>
</svg>
